<svg width="256" height="256" viewBox="0 0 256 256" fill="none" xmlns="http://www.w3.org/2000/svg">
<g clip-path="url(#clip0_3586_29073)">
<rect x="25.6" y="32" width="198.4" height="192" fill="white"/>
<path d="M247.43 8.57112C242.139 3.26827 234.825 0 226.743 0H29.2571C21.1749 0 13.8606 3.26827 8.56991 8.57112C3.26705 13.8618 0 21.1761 0 29.2584V226.744C0 234.826 3.26705 242.141 8.56991 247.431C13.8606 252.722 21.1749 256.001 29.2571 256.001H226.743C234.825 256.001 242.139 252.722 247.43 247.431C252.721 242.141 256 234.826 256 226.744V29.2584C256 21.1761 252.721 13.8618 247.43 8.57112ZM206.872 201.144C168.948 201.144 137.765 172.289 134.095 135.34V201.144C105.947 201.144 82.749 172.887 79.6038 136.474V201.144C62.7688 201.144 49.1276 168.4 49.1276 128.001C49.1276 87.602 62.7688 54.8584 79.6038 54.8584V119.529C82.749 83.1159 105.947 54.8584 134.095 54.8584V120.663C137.765 83.7132 168.948 54.8584 206.872 54.8584V201.144Z" fill="black"/>
</g>
<defs>
<clipPath id="clip0_3586_29073">
<rect width="256" height="256" fill="white"/>
</clipPath>
</defs>
</svg>
