<?xml version="1.0" encoding="UTF-8"?>
<svg id="Layer_2" data-name="Layer 2" xmlns="http://www.w3.org/2000/svg" viewBox="0 0 32 24.31">
  <defs>
    <style>
      .cls-1 {
        fill: #52e081;
      }
    </style>
  </defs>
  <g id="Layer_1-2" data-name="Layer 1">
    <path class="cls-1" d="M31.73,11.74h0c-.16-.07-.35-.05-.52.07-.42.32-1.56,1.05-2.9,1.05-.92,0-1.48-.35-1.79-.64-.17-.16-.21-.45-.11-.78,1.68-5.38,2.16-9.69,1.21-10.98-.22-.3-.52-.46-.86-.46-1.96,0-4.99,5.64-6.96,11.21-.14.38-.44.74-.82.96-.55.32-1.4.69-2.36.69s-1.48-.35-1.79-.64c-.17-.16-.21-.45-.11-.78,1.68-5.38,2.16-9.69,1.21-10.98-.22-.3-.52-.46-.86-.46-1.96,0-4.99,5.64-6.96,11.21-.14.38-.44.74-.82.96-.55.32-1.4.69-2.35.69-1.27,0-1.87-.67-2.07-.96-.12-.17-.34-.24-.55-.17-.17.06-.3.19-.36.36C.4,16.8-.66,22.27.48,23.84c.22.31.52.47.87.47,1.96,0,4.99-5.64,6.96-11.21.14-.38.44-.74.82-.96.55-.32,1.4-.69,2.36-.69s1.48.35,1.79.64c.17.16.21.45.11.78-1.68,5.38-2.16,9.69-1.21,10.98.22.3.52.46.86.46,1.96,0,4.99-5.64,6.96-11.21.14-.38.44-.74.82-.96.55-.32,1.4-.69,2.36-.69s1.48.35,1.79.64c.17.16.21.45.11.78-1.68,5.38-2.16,9.69-1.21,10.98.22.3.52.46.86.46,2.07,0,5.27-6.18,7.23-11.99.08-.24-.03-.48-.24-.58Z"/>
  </g>
</svg>